<svg width="86" height="86" viewBox="0 0 86 86" fill="none" xmlns="http://www.w3.org/2000/svg">
<g filter="url(#filter0_d_94_478)">
<ellipse cx="53.6651" cy="52.8887" rx="52" ry="52" fill="#F5F5F5"/>
</g>
<g clip-path="url(#clip0_94_478)" filter="url(#filter1_d_94_478)">
<g filter="url(#filter2_d_94_478)">
<path d="M64.1282 69.0843C62.9663 68.4908 62.2471 67.3039 62.2471 66.0039L62.2471 52.7213C62.2471 51.7887 62.6897 50.9126 63.4643 50.4039C64.4048 49.7539 64.9581 48.68 64.9581 47.5496L64.9581 33.7582C64.9581 28.4735 60.7533 24.1495 55.5526 24.1495L52.648 24.1495C47.475 24.1495 43.2425 28.4452 43.2425 33.7582L43.2425 47.5496C43.2425 48.7082 43.7958 49.7539 44.7363 50.4039M64.1282 69.0843L25.3998 81.293C33.5604 74.4539 42.385 69.9039 44.0724 69.0561C45.2343 68.4909 45.9535 67.3039 45.9535 66.0039L45.9535 52.7213C45.9535 51.7887 45.4832 50.9126 44.7363 50.4039M64.1282 69.0843C65.8156 69.9322 74.6402 74.4822 82.8008 81.3213L64.1282 69.0843ZM44.7363 50.4039L45.0178 49.9906C45.0183 49.991 45.0188 49.9913 45.0193 49.9917M44.7363 50.4039L45.0206 49.9926C45.0201 49.9923 45.0197 49.992 45.0193 49.9917M45.0193 49.9917C44.2144 49.4348 43.7425 48.5432 43.7425 47.5496L43.7425 33.7582C43.7425 28.7122 47.7602 24.6495 52.648 24.6495L55.5526 24.6495C60.4662 24.6495 64.4581 28.7385 64.4581 33.7582L64.4581 47.5496C64.4581 48.5159 63.9856 49.4336 63.1845 49.9894C62.2628 50.5974 61.7471 51.6343 61.7471 52.7213L61.7471 66.0039C61.7471 67.4902 62.5702 68.85 63.9007 69.5296L63.9037 69.5311C65.5795 70.3731 74.3634 74.9026 82.4797 81.7045L82.4815 81.706C83.2474 82.3418 83.684 83.3006 83.684 84.3169L83.684 93.7474C83.6236 95.5559 85.0695 97.0256 86.8673 97.0256C88.6749 97.0256 90.106 95.5482 90.106 93.7278L90.106 84.2887C90.106 81.2906 88.8265 78.4927 86.553 76.5866C79.3237 70.5011 71.5998 66.1432 68.1967 64.3455L68.1967 54.2268C69.9145 52.453 70.9077 50.071 70.9077 47.5213L70.9077 33.73C70.9077 25.0699 63.9988 18.0256 55.5249 18.0256L52.6203 18.0256C44.1176 18.0256 37.2375 25.0994 37.2375 33.73L37.2375 47.5213C37.2375 50.071 38.2308 52.453 39.9485 54.2268L39.9485 64.3455C36.5454 66.1432 28.8215 70.5011 21.5922 76.5866C19.3187 78.4927 18.0393 81.2906 18.0393 84.2887L18.0393 93.7278C18.0393 95.5482 19.4703 97.0256 21.278 97.0256C23.0856 97.0256 24.5166 95.5482 24.5166 93.7278L24.5166 84.2887C24.5166 83.2723 24.9532 82.3135 25.7191 81.6778L25.7209 81.6762C33.8326 74.8782 42.6111 70.35 44.294 69.5043C45.6324 68.8518 46.4535 67.4872 46.4535 66.0039L46.4535 52.7213C46.4535 51.6241 45.9022 50.5938 45.0193 49.9917Z" fill="#F14D34" stroke="#F14D34"/>
</g>
</g>
<defs>
<filter id="filter0_d_94_478" x="0.665039" y="0.888672" width="106" height="106" filterUnits="userSpaceOnUse" color-interpolation-filters="sRGB">
<feFlood flood-opacity="0" result="BackgroundImageFix"/>
<feColorMatrix in="SourceAlpha" type="matrix" values="0 0 0 0 0 0 0 0 0 0 0 0 0 0 0 0 0 0 127 0" result="hardAlpha"/>
<feOffset dy="1"/>
<feGaussianBlur stdDeviation="0.5"/>
<feColorMatrix type="matrix" values="0 0 0 0 0 0 0 0 0 0 0 0 0 0 0 0 0 0 0.1 0"/>
<feBlend mode="normal" in2="BackgroundImageFix" result="effect1_dropShadow_94_478"/>
<feBlend mode="normal" in="SourceGraphic" in2="effect1_dropShadow_94_478" result="shape"/>
</filter>
<filter id="filter1_d_94_478" x="6.66504" y="6.88867" width="94.4392" height="94.4392" filterUnits="userSpaceOnUse" color-interpolation-filters="sRGB">
<feFlood flood-opacity="0" result="BackgroundImageFix"/>
<feColorMatrix in="SourceAlpha" type="matrix" values="0 0 0 0 0 0 0 0 0 0 0 0 0 0 0 0 0 0 127 0" result="hardAlpha"/>
<feOffset dy="1"/>
<feGaussianBlur stdDeviation="0.5"/>
<feColorMatrix type="matrix" values="0 0 0 0 0 0 0 0 0 0 0 0 0 0 0 0 0 0 0.1 0"/>
<feBlend mode="normal" in2="BackgroundImageFix" result="effect1_dropShadow_94_478"/>
<feBlend mode="normal" in="SourceGraphic" in2="effect1_dropShadow_94_478" result="shape"/>
</filter>
<filter id="filter2_d_94_478" x="16.5393" y="17.5256" width="75.0667" height="82" filterUnits="userSpaceOnUse" color-interpolation-filters="sRGB">
<feFlood flood-opacity="0" result="BackgroundImageFix"/>
<feColorMatrix in="SourceAlpha" type="matrix" values="0 0 0 0 0 0 0 0 0 0 0 0 0 0 0 0 0 0 127 0" result="hardAlpha"/>
<feOffset dy="1"/>
<feGaussianBlur stdDeviation="0.5"/>
<feColorMatrix type="matrix" values="0 0 0 0 0 0 0 0 0 0 0 0 0 0 0 0 0 0 0.05 0"/>
<feBlend mode="normal" in2="BackgroundImageFix" result="effect1_dropShadow_94_478"/>
<feBlend mode="normal" in="SourceGraphic" in2="effect1_dropShadow_94_478" result="shape"/>
</filter>
<clipPath id="clip0_94_478">
<rect width="92.4392" height="92.4392" fill="white" transform="translate(7.66504 6.88867)"/>
</clipPath>
</defs>
</svg>
