<svg width="85" height="86" viewBox="0 0 85 86" fill="none" xmlns="http://www.w3.org/2000/svg">
<g clip-path="url(#clip0_94_509)">
<g filter="url(#filter0_d_94_509)">
<path d="M98.8416 25.8336L92.2024 92.5011L12.4605 92.5011L7.11157 27.1239L52.3314 52.4418L98.8416 25.8336Z" fill="#F2F2F2"/>
</g>
<g filter="url(#filter1_d_94_509)">
<path d="M96.5893 13.2754L52.3312 54.8502L8.07312 13.2754L52.3312 13.2754L96.5893 13.2754Z" fill="#F5F5F5"/>
</g>
<g filter="url(#filter2_d_94_509)">
<path d="M12.4601 26.4063L12.46 92.5013H5.23428C2.52724 92.5013 0.33105 90.3053 0.33105 87.598L0.331055 17.5651L8.25293 17.781L12.4601 26.4063Z" fill="#F2F2F2"/>
</g>
<path d="M104.331 12.9791L104.331 18.432L92.2023 27.2732L52.3313 56.3339L12.4603 27.2732L0.331298 18.432L0.331299 18.1791C0.331299 15.472 2.52749 13.2759 5.23453 13.2759H8.0732L52.3313 45.5339L96.5894 13.2759H99.4254C102.135 13.2759 104.331 10.2718 104.331 12.9791Z" fill="#F14D34"/>
</g>
<defs>
<filter id="filter0_d_94_509" x="6.11157" y="25.8336" width="93.73" height="68.6675" filterUnits="userSpaceOnUse" color-interpolation-filters="sRGB">
<feFlood flood-opacity="0" result="BackgroundImageFix"/>
<feColorMatrix in="SourceAlpha" type="matrix" values="0 0 0 0 0 0 0 0 0 0 0 0 0 0 0 0 0 0 127 0" result="hardAlpha"/>
<feOffset dy="1"/>
<feGaussianBlur stdDeviation="0.5"/>
<feColorMatrix type="matrix" values="0 0 0 0 0 0 0 0 0 0 0 0 0 0 0 0 0 0 0.264 0"/>
<feBlend mode="normal" in2="BackgroundImageFix" result="effect1_dropShadow_94_509"/>
<feBlend mode="normal" in="SourceGraphic" in2="effect1_dropShadow_94_509" result="shape"/>
</filter>
<filter id="filter1_d_94_509" x="7.07312" y="13.2754" width="90.5162" height="43.5748" filterUnits="userSpaceOnUse" color-interpolation-filters="sRGB">
<feFlood flood-opacity="0" result="BackgroundImageFix"/>
<feColorMatrix in="SourceAlpha" type="matrix" values="0 0 0 0 0 0 0 0 0 0 0 0 0 0 0 0 0 0 127 0" result="hardAlpha"/>
<feOffset dy="1"/>
<feGaussianBlur stdDeviation="0.5"/>
<feColorMatrix type="matrix" values="0 0 0 0 0 0 0 0 0 0 0 0 0 0 0 0 0 0 0.264 0"/>
<feBlend mode="normal" in2="BackgroundImageFix" result="effect1_dropShadow_94_509"/>
<feBlend mode="normal" in="SourceGraphic" in2="effect1_dropShadow_94_509" result="shape"/>
</filter>
<filter id="filter2_d_94_509" x="-0.668945" y="17.5651" width="14.129" height="76.9362" filterUnits="userSpaceOnUse" color-interpolation-filters="sRGB">
<feFlood flood-opacity="0" result="BackgroundImageFix"/>
<feColorMatrix in="SourceAlpha" type="matrix" values="0 0 0 0 0 0 0 0 0 0 0 0 0 0 0 0 0 0 127 0" result="hardAlpha"/>
<feOffset dy="1"/>
<feGaussianBlur stdDeviation="0.5"/>
<feColorMatrix type="matrix" values="0 0 0 0 0 0 0 0 0 0 0 0 0 0 0 0 0 0 0.264 0"/>
<feBlend mode="normal" in2="BackgroundImageFix" result="effect1_dropShadow_94_509"/>
<feBlend mode="normal" in="SourceGraphic" in2="effect1_dropShadow_94_509" result="shape"/>
</filter>
<clipPath id="clip0_94_509">
<rect width="104" height="104" fill="white" transform="translate(0.331055 0.88855)"/>
</clipPath>
</defs>
</svg>
