<svg width="84" height="86" viewBox="0 0 84 86" fill="none" xmlns="http://www.w3.org/2000/svg">
<g clip-path="url(#clip0_94_498)">
<g filter="url(#filter0_d_94_498)">
<path d="M52.7981 53.0757L32.1949 4.53689C59.0278 -5.49937 90.5595 5.65043 100.468 32.2279C110.29 58.5679 98.8562 89.3189 72.831 100.632C46.4065 112.119 15.6825 99.517 4.42474 72.9953C-1.16274 59.8325 -0.923484 45.6623 3.97142 33.3486L52.7981 53.0757Z" fill="#F5F5F5"/>
</g>
<path d="M6.81105 28.9036C11.1087 19.5095 18.461 11.4791 28.222 6.46907C28.3299 6.41331 28.4666 6.46188 28.5152 6.57521L44.5707 44.3978L6.92618 29.1878C6.81465 29.1429 6.76248 29.0133 6.81105 28.9036Z" fill="#F14D34"/>
</g>
<defs>
<filter id="filter0_d_94_498" x="-0.733276" y="0.890625" width="105.692" height="105.999" filterUnits="userSpaceOnUse" color-interpolation-filters="sRGB">
<feFlood flood-opacity="0" result="BackgroundImageFix"/>
<feColorMatrix in="SourceAlpha" type="matrix" values="0 0 0 0 0 0 0 0 0 0 0 0 0 0 0 0 0 0 127 0" result="hardAlpha"/>
<feOffset dy="1"/>
<feGaussianBlur stdDeviation="0.5"/>
<feColorMatrix type="matrix" values="0 0 0 0 0 0 0 0 0 0 0 0 0 0 0 0 0 0 0.1 0"/>
<feBlend mode="normal" in2="BackgroundImageFix" result="effect1_dropShadow_94_498"/>
<feBlend mode="normal" in="SourceGraphic" in2="effect1_dropShadow_94_498" result="shape"/>
</filter>
<clipPath id="clip0_94_498">
<rect width="104" height="104" fill="white" transform="matrix(1.19249e-08 -1 -1 -1.19249e-08 104.113 104.889)"/>
</clipPath>
</defs>
</svg>
